<svg width="32" height="32" viewBox="0 0 32 32" fill="none" xmlns="http://www.w3.org/2000/svg">
<path d="M6.12633 25.8736L6.83344 25.1665L6.12634 25.8736C6.49512 26.2424 6.94707 26.2357 7.15376 26.2155C7.33339 26.1979 7.53631 26.1469 7.6828 26.1101C7.6948 26.1071 7.70642 26.1042 7.71761 26.1014L11.7051 25.1045C11.723 25.1 11.7415 25.0955 11.7604 25.0908C11.9687 25.0394 12.2323 24.9743 12.4741 24.8374C12.7159 24.7005 12.9073 24.5079 13.0586 24.3558C13.0723 24.3419 13.0857 24.3285 13.0988 24.3154L23.2929 14.1213C23.3057 14.1085 23.3185 14.0957 23.3313 14.0829C23.6313 13.7831 23.9227 13.4917 24.1308 13.219C24.3653 12.9116 24.5857 12.5137 24.5857 12C24.5857 11.4863 24.3653 11.0884 24.1308 10.781C23.9227 10.5083 23.6313 10.217 23.3313 9.91716C23.3188 9.90464 23.3063 9.89211 23.2937 9.87955C23.2934 9.87926 23.2931 9.87897 23.2929 9.87868L22.1213 8.70711C22.1084 8.69427 22.0956 8.68144 22.0828 8.66863C21.783 8.36871 21.4916 8.07723 21.219 7.86919C20.9116 7.63466 20.5136 7.41421 20 7.41421C19.4863 7.41421 19.0883 7.63466 18.7809 7.86919C18.5083 8.07723 18.2169 8.36871 17.9171 8.66863C17.9043 8.68145 17.8915 8.69427 17.8786 8.70711L7.68457 18.9012C7.67149 18.9143 7.65801 18.9277 7.6442 18.9414C7.49203 19.0926 7.29941 19.2841 7.16252 19.5259L8.03272 20.0186L7.16252 19.5259C7.02564 19.7676 6.96057 20.0313 6.90917 20.2396C6.9045 20.2585 6.89994 20.277 6.89546 20.2949L5.8986 24.2823C5.8958 24.2936 5.89287 24.3052 5.88986 24.3172C5.85304 24.4637 5.80203 24.6666 5.78446 24.8462C5.76424 25.0529 5.75756 25.5048 6.12633 25.8736Z" stroke="#33363F" stroke-width="2"/>
<path d="M16.6666 10L20.6666 7.33337L24.6666 11.3334L22 15.3334L16.6666 10Z" fill="#33363F"/>
</svg>
