<svg width="52" height="46" viewBox="0 0 52 46" fill="none" xmlns="http://www.w3.org/2000/svg">
<path d="M20.2083 36.7601V26.2601C20.2083 25.7078 19.7606 25.2601 19.2083 25.2601H11.625C11.0727 25.2601 10.625 25.7078 10.625 26.2601V36.7601" stroke="#ED6A5A" stroke-width="3" stroke-linecap="round" stroke-linejoin="round"/>
<path d="M2 20.9661C2 18.3637 2 17.0625 2.52605 15.9188C3.0521 14.775 4.04003 13.9282 6.0159 12.2346L7.93257 10.5917C11.5039 7.53058 13.2896 6 15.4167 6C17.5437 6 19.3294 7.53058 22.9008 10.5917L24.8174 12.2346C26.7933 13.9282 27.7812 14.775 28.3073 15.9188C28.8333 17.0625 28.8333 18.3637 28.8333 20.9661V29.0935C28.8333 32.7076 28.8333 34.5146 27.7106 35.6374C26.5878 36.7601 24.7808 36.7601 21.1667 36.7601H9.66667C6.05257 36.7601 4.24551 36.7601 3.12276 35.6374C2 34.5146 2 32.7076 2 29.0935V20.9661Z" stroke="#ED6A5A" stroke-width="3"/>
</svg>
