<svg width="39" height="39" viewBox="0 0 39 39" fill="none" xmlns="http://www.w3.org/2000/svg">
<path d="M4.875 12.875C4.875 9.10376 4.875 7.21815 6.04657 6.04657C7.21815 4.875 9.10376 4.875 12.875 4.875H26.125C29.8962 4.875 31.7819 4.875 32.9534 6.04657C34.125 7.21815 34.125 9.10376 34.125 12.875V26.125C34.125 29.8962 34.125 31.7819 32.9534 32.9534C31.7819 34.125 29.8962 34.125 26.125 34.125H12.875C9.10376 34.125 7.21815 34.125 6.04657 32.9534C4.875 31.7819 4.875 29.8962 4.875 26.125V12.875Z" stroke="white" stroke-width="2"/>
<path fill-rule="evenodd" clip-rule="evenodd" d="M32.125 24.2107L29.5355 21.6213L29.489 21.5747L29.489 21.5747C28.8622 20.9478 28.3221 20.4077 27.8315 20.0334C27.3056 19.6322 26.7208 19.3284 26 19.3284C25.2792 19.3284 24.6944 19.6322 24.1685 20.0334C23.6779 20.4077 23.1378 20.9479 22.511 21.5747L22.4645 21.6213L20.8817 23.204C20.3853 23.7004 20.0912 23.9908 19.8628 24.1604L19.8528 24.1678L19.8463 24.1572C19.6973 23.915 19.532 23.5361 19.2555 22.8908L17.8715 19.6615L17.84 19.5881C17.3397 18.4205 16.9202 17.4417 16.4875 16.7383C16.035 16.0028 15.4445 15.3606 14.5177 15.1821C13.5909 15.0036 12.8041 15.3806 12.1108 15.8955C11.4478 16.3878 10.6949 17.1408 9.79665 18.0391L9.79665 18.0391L9.74021 18.0955L6.875 20.9607V23.7892L11.1544 19.5097C12.1241 18.5401 12.7731 17.8948 13.3032 17.5012C13.8168 17.1198 14.0243 17.1239 14.1395 17.146C14.2547 17.1682 14.4489 17.2415 14.7841 17.7864C15.1301 18.3487 15.493 19.1889 16.0332 20.4493L17.4172 23.6787L17.444 23.7412L17.444 23.7412C17.6843 24.3022 17.9068 24.8216 18.1429 25.2053C18.3985 25.6207 18.7928 26.084 19.4591 26.2123C20.1254 26.3407 20.6636 26.0569 21.0552 25.7661C21.4169 25.4975 21.8164 25.0979 22.2479 24.6663L22.2959 24.6182L23.8787 23.0355C24.5653 22.3488 25.0107 21.9065 25.3817 21.6234C25.7296 21.3579 25.8923 21.3284 26 21.3284C26.1077 21.3284 26.2704 21.3579 26.6183 21.6234C26.9893 21.9065 27.4347 22.3488 28.1213 23.0355L31.7929 26.7071L32.125 26.375C32.125 26.2929 32.125 26.2096 32.125 26.125V24.2107ZM19.717 24.2525C19.7164 24.2528 19.7161 24.2529 19.7161 24.253C19.7161 24.253 19.7164 24.2529 19.7172 24.2526C19.7179 24.2524 19.719 24.2519 19.7205 24.2513C19.7189 24.2518 19.7178 24.2522 19.717 24.2525ZM19.9447 24.2945C19.947 24.2964 19.9482 24.2976 19.9482 24.2977C19.9482 24.2978 19.947 24.2968 19.9447 24.2945Z" fill="white"/>
<circle cx="26.8125" cy="12.1875" r="2.4375" fill="white"/>
</svg>
