<svg width="30" height="30" viewBox="0 0 30 30" fill="none" xmlns="http://www.w3.org/2000/svg">
<path d="M3.75 7.75C3.75 6.34987 3.75 5.6498 4.02248 5.11502C4.26217 4.64462 4.64462 4.26217 5.11502 4.02248C5.6498 3.75 6.34987 3.75 7.75 3.75H22.25C23.6501 3.75 24.3502 3.75 24.885 4.02248C25.3554 4.26217 25.7378 4.64462 25.9775 5.11502C26.25 5.6498 26.25 6.34987 26.25 7.75V22.25C26.25 23.6501 26.25 24.3502 25.9775 24.885C25.7378 25.3554 25.3554 25.7378 24.885 25.9775C24.3502 26.25 23.6501 26.25 22.25 26.25H7.75C6.34987 26.25 5.6498 26.25 5.11502 25.9775C4.64462 25.7378 4.26217 25.3554 4.02248 24.885C3.75 24.3502 3.75 23.6501 3.75 22.25V7.75Z" stroke="#222222" stroke-width="2"/>
<circle cx="10" cy="15" r="2.75" stroke="#222222" stroke-width="2"/>
<path d="M12.5 15H17.5M21.25 17.5V15.15C21.25 15.0672 21.1828 15 21.1 15H17.5M17.5 15V17.5" stroke="#222222" stroke-width="2" stroke-linecap="round"/>
</svg>
