<svg width="30" height="30" viewBox="0 0 30 30" fill="none" xmlns="http://www.w3.org/2000/svg">
<path d="M3.94797 17.4133C3.05672 15.9279 3.05672 14.0721 3.94797 12.5867V12.5867C4.21995 12.1334 4.67052 11.8159 5.18887 11.7122L7.30516 11.289C7.43124 11.2638 7.54489 11.1961 7.6272 11.0974L10.9208 7.14498C12.1034 5.72592 12.6947 5.01638 13.2223 5.20742C13.75 5.39846 13.75 6.32207 13.75 8.16928L13.75 21.8307C13.75 23.6779 13.75 24.6015 13.2223 24.7926C12.6947 24.9836 12.1034 24.2741 10.9208 22.855L7.6272 18.9026C7.54489 18.8039 7.43124 18.7362 7.30516 18.711L5.18887 18.2878C4.67052 18.1841 4.21995 17.8666 3.94797 17.4133V17.4133Z" stroke="#222222" stroke-width="2"/>
<path d="M18.75 18.75L26.25 11.25" stroke="#222222" stroke-width="2" stroke-linecap="round"/>
<path d="M26.25 18.75L18.75 11.25" stroke="#222222" stroke-width="2" stroke-linecap="round"/>
</svg>
