<svg width="184" height="298" viewBox="0 0 184 298" fill="none" xmlns="http://www.w3.org/2000/svg">
<g clip-path="url(#clip0_2664_367)">
<path d="M91.9375 -0.4375C93.4486 -0.467471 93.4486 -0.467471 94.9902 -0.498047C108.567 -0.489316 120.288 5.3385 130.125 14.5C145.455 30.6016 147.624 48.93 147.496 70.1641C147.496 72.2901 147.498 74.4161 147.501 76.5421C147.502 80.9748 147.489 85.4072 147.467 89.8398C147.438 95.4928 147.441 101.145 147.454 106.798C147.461 111.18 147.453 115.563 147.44 119.945C147.436 122.028 147.436 124.112 147.439 126.195C147.46 146.327 144.707 163.81 130.326 178.936C119.514 189.692 107.089 194.331 92 194.5C76.6882 194.328 64.6119 189.329 53.3125 178.938C40.7257 165.651 35.8438 148.442 35.8547 130.479C35.8514 129.669 35.848 128.858 35.8446 128.022C35.8351 125.364 35.8331 122.705 35.832 120.047C35.8288 118.181 35.8254 116.316 35.8219 114.45C35.816 110.547 35.8141 106.643 35.8147 102.74C35.8148 97.7661 35.8012 92.7926 35.7839 87.8189C35.7727 83.9668 35.7708 80.1147 35.7713 76.2625C35.7701 74.4303 35.7658 72.5981 35.758 70.7659C35.6748 49.176 38.8088 30.192 54.0078 13.8398C65.1017 3.62178 77.0162 -0.542111 91.9375 -0.4375ZM66.6875 37.25C59.9692 48.4148 60.5549 60.3782 60.6016 72.9727C60.5995 74.906 60.5966 76.8393 60.5929 78.7726C60.5885 82.8078 60.5948 86.8429 60.6089 90.8782C60.626 96.028 60.6161 101.177 60.5982 106.327C60.5873 110.314 60.5908 114.301 60.5986 118.288C60.6005 120.186 60.5981 122.084 60.5911 123.982C60.5504 138.073 61.1405 151.079 70.9375 162.199C76.8176 167.88 83.3412 171.674 91.6406 172.152C100.534 171.62 108.004 167.503 114 161C120.582 152.626 123.128 142.566 123 132C121.936 131.985 120.871 131.971 119.775 131.956C115.814 131.898 111.854 131.82 107.894 131.738C106.182 131.704 104.47 131.676 102.758 131.654C100.293 131.62 97.8283 131.568 95.3633 131.512C94.6016 131.505 93.84 131.499 93.0553 131.492C88.5529 131.369 85.5886 130.778 82 128C80.2026 124.868 79.6597 121.521 80.4492 117.992C81.8035 114.567 82.9076 113.062 86 111C88.8244 110.759 91.5588 110.627 94.3867 110.586C95.2037 110.567 96.0207 110.547 96.8625 110.527C99.4707 110.467 102.079 110.421 104.688 110.375C106.456 110.337 108.225 110.298 109.994 110.258C114.329 110.16 118.664 110.081 123 110C123 103.73 123 97.46 123 91C120.938 90.7525 118.875 90.505 116.75 90.25C111.743 89.6491 109.2 88.9921 106 85C104.468 81.9357 104.771 79.3834 105 76C106.376 72.5609 107.27 71.3476 110.625 69.75C114.734 68.8368 118.809 68.3539 123 68C123.486 54.0388 121.544 40.8464 111.812 30.0625C106.255 25.0684 99.3796 21.7876 91.875 21.4375C81.0685 22.0873 72.8597 28.7519 66.6875 37.25Z" fill="white"/>
<path d="M18 124C20.9736 126.216 22.3696 127.739 24 131C24.1936 133.14 24.3825 135.281 24.5434 137.423C26.2883 159.721 33.5073 181.316 50.8164 196.465C65.6387 208.079 81.1633 213.86 100 212C117.988 208.849 132.463 198.912 143.375 184.563C153.303 170.042 157.236 155.593 158.786 138.314C159.745 128.862 159.745 128.862 164 125C168.189 122.906 173.451 123.436 178 124C180.454 125.422 181.326 126.634 183 129C183.33 129.33 183.66 129.66 184 130C185.626 157.803 177.09 184.596 158.55 205.647C144.423 221.21 127.512 230.501 107 235C106.01 235 105.02 235 104 235C103.959 236.134 103.917 237.269 103.875 238.438C101.793 256.774 91.7306 272.251 79 285C78.3194 285.692 77.6387 286.385 76.9375 287.098C69.9922 293.681 61.9722 298.364 52.25 298.375C50.4981 298.281 48.7465 298.167 47 298C48.6286 294.283 50.9688 291.406 53.5 288.25C61.5641 277.91 68.341 267.207 73.5 255.125C73.9894 253.985 73.9894 253.985 74.4888 252.822C76.7296 247.323 78.0147 241.849 79 236C77.912 235.697 76.8241 235.394 75.7031 235.082C48.925 227.51 26.7018 213.66 12.811 188.879C4.80319 173.642 -0.350111 157.482 -0.375013 140.188C-0.399505 139.273 -0.423997 138.358 -0.449232 137.416C-0.468105 133.091 -0.416401 130.674 1.89842 126.926C6.46106 122.745 12.0959 123.276 18 124Z" fill="white"/>
</g>
<defs>
<clipPath id="clip0_2664_367">
<rect width="184" height="298" fill="white"/>
</clipPath>
</defs>
</svg>
