<svg width="52" height="52" viewBox="0 0 52 52" fill="none" xmlns="http://www.w3.org/2000/svg">
<path fill-rule="evenodd" clip-rule="evenodd" d="M26 4C20.2741 4 15.3971 7.60813 13.5069 12.6667H13C8.02944 12.6667 4 16.6961 4 21.6667C4 26.6372 8.02944 30.6667 13 30.6667H16.3382L21.3382 25.6667L13 25.6667C10.7909 25.6667 9 23.8758 9 21.6667C9 19.4575 10.7909 17.6667 13 17.6667H13.7486L13.8149 17.6667C14.1266 17.6669 14.5249 17.6671 14.8758 17.6311C15.2895 17.5885 15.9302 17.4737 16.5562 17.037C17.2256 16.5699 17.557 15.9443 17.7213 15.5979C17.8779 15.2678 18.0247 14.868 18.1512 14.5237L18.1754 14.4577C19.3479 11.2685 22.4122 9 26 9C29.5878 9 32.6521 11.2685 33.8246 14.4577L33.8488 14.5237L33.8488 14.5237C33.9753 14.868 34.1221 15.2678 34.2787 15.5979C34.443 15.9443 34.7744 16.5699 35.4438 17.037C36.0698 17.4737 36.7105 17.5885 37.1242 17.6311C37.4751 17.6671 37.8734 17.6669 38.1851 17.6667L38.2514 17.6667H41.5C42.3284 17.6667 43 18.3382 43 19.1667V24.1667C43 24.9951 42.3284 25.6667 41.5 25.6667L30.6618 25.6667L35.6618 30.6667H41.5C45.0899 30.6667 48 27.7565 48 24.1667V19.1667C48 15.5768 45.0899 12.6667 41.5 12.6667H38.4931C36.6029 7.60813 31.7259 4 26 4ZM30.0049 30.6667L28 28.6618V30.6667H30.0049ZM24 30.6667V28.6618L21.9951 30.6667H24ZM13.199 13.4646L13.2011 13.4605C13.1997 13.4633 13.199 13.4647 13.199 13.4646Z" fill="#B7B7B7"/>
<path d="M26 26L24.5858 24.5858L26 23.1716L27.4142 24.5858L26 26ZM28 45.5C28 46.6046 27.1046 47.5 26 47.5C24.8954 47.5 24 46.6046 24 45.5L28 45.5ZM15.9191 33.2525L24.5858 24.5858L27.4142 27.4142L18.7476 36.0809L15.9191 33.2525ZM27.4142 24.5858L36.0809 33.2525L33.2525 36.0809L24.5858 27.4142L27.4142 24.5858ZM28 26L28 45.5L24 45.5L24 26L28 26Z" fill="#B7B7B7"/>
</svg>
